<svg xmlns="http://www.w3.org/2000/svg" viewBox="2760 4470 1680 740" fill="white">
<g>
	<g>
		<polygon points="2986.68,4694.01 2833.63,4694.01 2766.68,5139.15 2919.51,5139.15"/>
		<polygon points="3289.43,4837.38 3218.58,4837.38 3247.37,4627.94 3067.39,4627.94 2982.96,5201.04 3160.9,5201.04
			3187.77,5009.7 3261.75,5009.7"/>
		<g>
			<g>
				<path d="M3987,4931.6c28.51,0,55.28-6.53,80.32-19.59c25.04-13.06,47.47-30.91,67.29-53.55
					c19.82-22.64,36.34-49.2,49.55-79.67c13.21-30.48,22.25-63.13,27.12-97.96c6.95-48.76,5.56-92.08-4.18-129.96
					c-9.74-37.88-25.39-69.66-46.94-95.34s-47.99-45.28-79.28-58.78c-31.29-13.5-65.37-20.25-102.23-20.25h-668.65l-3.13,18.29
					c35.46,3.49,61.72,21.13,78.75,52.92c17.04,31.8,22.43,69.9,16.17,114.31l-36.28,257.15h32.17l-27.68,204.19h-33.3
					l-29.84,211.49h216.97l29.87-211.37h6.31c19.75,0.01,39.5,0.03,59.25,0.04l26.4-189.99l1.19-6.53l272.33,407.86h318.16
					L3987,4931.6z M3978.65,4708.32c-4.87,35.68-18.43,63.09-40.68,82.23c-22.25,19.14-46.59,28.72-73.01,28.72h-216.69l0.15-0.83
					c-21.91,0.02-43.83,0.05-65.74,0.07l30.88-218.52h282.69c26.43,0,47.99,9.36,64.67,28.06
					C3977.61,4646.76,3983.52,4673.52,3978.65,4708.32z"/>
			</g>
		</g>
	</g>
</g>
</svg>
