<svg xmlns="http://www.w3.org/2000/svg" viewBox="670 1570 5750 1260" fill="currentColor">
<g>
	<g>
		<path d="M1520.44,2650.02v38.25h-160.29v33.49h138.22v37.5h-138.22v62.59h-46.91v-171.83H1520.44z"/>
		<path d="M1643.81,2650.02v171.83h-46.91v-171.83H1643.81z"/>
		<path d="M1938.89,2650.02v38.25h-89.05v133.58h-46.91v-133.58H1714v-38.25H1938.89z"/>
		<path d="M2053.48,2650.02l148.5,120.66v-120.66h47.03v171.83h-47.03l-148.5-120.53v120.53h-46.91v-171.83H2053.48z"/>
		<path d="M2535.19,2650.02v38.25h-165.31v28.1h143.24v37.63h-143.24v29.6h165.31v38.25h-212.22v-171.83H2535.19z"/>
		<path d="M2775.83,2650.02c15.8,0,29.18,5.06,40.14,15.18c11.04,10.12,16.56,22.37,16.56,36.75v0.75h-45.65
			c0.25-0.5,0.29-0.75,0.13-0.75c0-3.76-1.42-6.9-4.26-9.41c-2.68-2.76-6.15-4.01-10.41-3.76h-97.71
			c-4.01-0.25-7.44,1.05-10.28,3.89c-2.76,2.51-4.14,5.6-4.14,9.28c0.08,3.68,1.51,6.82,4.26,9.41c2.76,2.59,6.15,3.89,10.16,3.89
			c11.54,0,29.35-0.04,53.43-0.13c24.08-0.25,41.85-0.25,53.31,0c16.31-0.08,30.1,5.14,41.39,15.68
			c11.62,10.37,17.31,22.95,17.06,37.75c0.08,14.8-5.64,27.39-17.18,37.75c-11.21,10.37-24.96,15.55-41.27,15.55h-113.76
			c-16.05,0-29.85-5.18-41.39-15.55c-11.37-10.37-17.06-22.95-17.06-37.75h43.9v0.25c0,4.18,1.63,7.78,4.89,10.79
			c3.26,3.01,7.15,4.52,11.66,4.52h107.36c4.68-0.25,8.61-1.71,11.79-4.39c3.18-3.01,4.77-6.56,4.77-10.66
			c0-4.26-1.63-7.86-4.89-10.79c-3.26-3.01-7.15-4.52-11.66-4.52h-110.75c-15.72-0.08-29.1-5.14-40.14-15.18
			c-11.04-10.2-16.56-22.41-16.56-36.62c0-14.38,5.52-26.46,16.56-36.25c10.95-9.95,24.33-15.18,40.14-15.68H2775.83z"/>
		<path d="M3080.81,2650.02c15.8,0,29.18,5.06,40.14,15.18c11.04,10.12,16.56,22.37,16.56,36.75v0.75h-45.65
			c0.25-0.5,0.29-0.75,0.13-0.75c0-3.76-1.42-6.9-4.26-9.41c-2.68-2.76-6.15-4.01-10.41-3.76h-97.71
			c-4.01-0.25-7.44,1.05-10.28,3.89c-2.76,2.51-4.14,5.6-4.14,9.28c0.08,3.68,1.51,6.82,4.26,9.41c2.76,2.59,6.15,3.89,10.16,3.89
			c11.54,0,29.35-0.04,53.43-0.13c24.08-0.25,41.85-0.25,53.31,0c16.31-0.08,30.1,5.14,41.39,15.68
			c11.62,10.37,17.31,22.95,17.06,37.75c0.08,14.8-5.64,27.39-17.18,37.75c-11.21,10.37-24.96,15.55-41.26,15.55h-113.76
			c-16.05,0-29.85-5.18-41.39-15.55c-11.37-10.37-17.06-22.95-17.06-37.75h43.9v0.25c0,4.18,1.63,7.78,4.89,10.79
			c3.26,3.01,7.15,4.52,11.66,4.52h107.36c4.68-0.25,8.61-1.71,11.79-4.39c3.18-3.01,4.77-6.56,4.77-10.66
			c0-4.26-1.63-7.86-4.89-10.79c-3.26-3.01-7.15-4.52-11.66-4.52h-110.75c-15.72-0.08-29.1-5.14-40.14-15.18
			c-11.04-10.2-16.56-22.41-16.56-36.62c0-14.38,5.52-26.46,16.56-36.25c10.95-9.95,24.33-15.18,40.14-15.68H3080.81z"/>
		<path d="M3608.13,2650.02v38.25h-165.31v28.1h143.24v37.63h-143.24v29.6h165.31v38.25h-212.22v-171.83H3608.13z"/>
		<path d="M3778.78,2821.85l-104.23-171.83h54.31l77.26,129.19l77.01-129.19h54.31l-104.23,171.83H3778.78z"/>
		<path d="M4187.12,2650.02c15.38,0,28.43,4.89,39.13,14.67c10.79,9.78,16.14,21.62,16.05,35.5v71.49
			c0.08,13.88-5.27,25.71-16.05,35.5c-10.7,9.78-23.75,14.67-39.13,14.67h-134.33c-15.3,0-28.35-4.89-39.13-14.67
			c-10.7-9.78-16.05-21.61-16.05-35.5v-71.49c0-13.88,5.35-25.71,16.05-35.5c10.79-9.78,23.83-14.67,39.13-14.67H4187.12z
			 M4050.9,2694.17c-4.26,3.68-6.4,8.4-6.4,14.17v55.19c0,5.52,2.13,10.28,6.4,14.3c4.26,3.76,9.49,5.69,15.68,5.77h106.74
			c6.27-0.25,11.5-2.21,15.68-5.89c4.26-4.01,6.4-8.74,6.4-14.17v-55.19c0-5.77-2.13-10.54-6.4-14.3c-4.18-4.1-9.41-6.02-15.68-5.77
			h-106.74C4060.39,2688.19,4055.17,2690.15,4050.9,2694.17z"/>
		<path d="M4316.38,2821.85v-171.83h46.91v133.58h156.41v38.25H4316.38z"/>
		<path d="M4640.55,2650.02v113.51c0,5.52,2.13,10.28,6.4,14.3c4.26,3.76,9.49,5.69,15.68,5.77h95.7c6.27-0.25,11.5-2.21,15.68-5.89
			c4.26-4.01,6.4-8.74,6.4-14.17v-113.51h46.91v121.66c0.08,13.88-5.27,25.71-16.05,35.5c-10.7,9.78-23.75,14.67-39.13,14.67
			h-123.29c-15.3,0-28.35-4.89-39.13-14.67c-10.7-9.78-16.05-21.61-16.05-35.5v-121.66H4640.55z"/>
		<path d="M5120.01,2650.02v38.25h-89.05v133.58h-46.91v-133.58h-88.93v-38.25H5120.01z"/>
		<path d="M5237.1,2650.02v171.83h-46.91v-171.83H5237.1z"/>
		<path d="M5503.08,2650.02c15.38,0,28.43,4.89,39.13,14.67c10.79,9.78,16.14,21.62,16.05,35.5v71.49
			c0.08,13.88-5.27,25.71-16.05,35.5c-10.7,9.78-23.75,14.67-39.13,14.67h-134.33c-15.3,0-28.35-4.89-39.13-14.67
			c-10.7-9.78-16.05-21.61-16.05-35.5v-71.49c0-13.88,5.35-25.71,16.05-35.5c10.79-9.78,23.83-14.67,39.13-14.67H5503.08z
			 M5366.87,2694.17c-4.26,3.68-6.4,8.4-6.4,14.17v55.19c0,5.52,2.13,10.28,6.4,14.3c4.26,3.76,9.49,5.69,15.68,5.77h106.74
			c6.27-0.25,11.5-2.21,15.68-5.89c4.26-4.01,6.4-8.74,6.4-14.17v-55.19c0-5.77-2.13-10.54-6.4-14.3c-4.18-4.1-9.41-6.02-15.68-5.77
			h-106.74C5376.36,2688.19,5371.13,2690.15,5366.87,2694.17z"/>
		<path d="M5679.25,2650.02l148.5,120.66v-120.66h47.03v171.83h-47.03l-148.5-120.53v120.53h-46.91v-171.83H5679.25z"/>
	</g>
	<g>
		<g>
			<path d="M3913.14,2268.05c16.28,0,29.25-3.33,38.88-10c9.62-6.67,15.17-14.25,16.66-22.77
				c1.48-8.5-0.94-16.47-7.22-23.88c-6.3-7.39-17.22-12.22-32.77-14.44l-351.03-46.66c-25.93-3.7-49.43-11.66-70.54-23.88
				c-21.11-12.22-38.52-27.77-52.21-46.66c-13.71-18.89-23.15-40.35-28.33-64.43c-5.19-24.06-5.55-49.43-1.11-76.09
				c5.17-28.88,15.55-56.1,31.1-81.65c15.55-25.55,34.44-47.77,56.65-66.65c22.22-18.88,47.21-33.88,74.98-44.99
				c27.77-11.11,56.1-16.66,84.98-16.66h662.32l-33.87,191.07h-579.58c-11.86,0-21.11,2.41-27.77,7.22
				c-6.67,4.82-10.74,10.19-12.22,16.11c-1.49,5.94,0,11.66,4.44,17.22c4.44,5.55,12.22,9.08,23.33,10.55l373.25,51.1
				c24.44,2.97,46.66,10.38,66.65,22.22c20,11.85,36.47,26.66,49.43,44.43c12.95,17.77,21.83,37.96,26.66,60.54
				c4.81,22.6,5,46.85,0.56,72.76l-5.56,33.33c-5.19,28.15-15.19,54.43-29.99,78.87c-14.82,24.44-32.96,45.93-54.43,64.43
				c-21.49,18.52-45.18,32.96-71.09,43.32c-25.93,10.38-52.96,15.55-81.09,15.55h-653.51l33.67-189.96H3913.14z"/>
			<path d="M6414.25,1727.36l-33.76,190.47h-344.25l-95.79,541.33h-231.68l95.79-541.33h-237.32l27.34-190.47H6414.25z"/>
			<path d="M2381.63,1886.93c5.92-33.33,4.06-59.43-5.56-78.32c-9.63-18.88-21.85-33.13-36.66-42.77
				c-16.3-11.11-35.93-18.14-58.87-21.11l3.33-15.55h961.88l-33.67,189.95h-603.84l-15.55,84.42h553.83l-40.61,167.74h-542.09
				l-17.77,97.75h600.48l-36.01,189.96h-828.85L2381.63,1886.93z"/>
			<path d="M4574.97,1886.08c5.92-33.33,4.06-59.43-5.56-78.32c-9.63-18.88-21.85-33.13-36.66-42.77
				c-16.3-11.11-35.93-18.14-58.87-21.11l3.33-15.55h961.88l-33.67,189.95h-603.84l-15.55,84.42h553.83l-40.61,167.74h-542.09
				l-17.77,97.75h600.48l-36.01,189.96h-828.85L4574.97,1886.08z"/>
			<g>
				<polygon points="892.36,1918.52 739.31,1918.52 672.36,2363.65 825.19,2363.65"/>
				<polygon points="1195.11,2061.88 1124.26,2061.88 1153.06,1852.44 973.07,1852.44 888.64,2425.55 1066.58,2425.55
					1093.45,2234.2 1167.43,2234.2"/>
				<g>
					<g>
						<path d="M1892.68,2156.1c28.51,0,55.28-6.53,80.32-19.59c25.04-13.06,47.46-30.91,67.29-53.55
							c19.82-22.64,36.34-49.2,49.55-79.67c13.21-30.48,22.25-63.13,27.12-97.96c6.95-48.76,5.56-92.08-4.18-129.96
							c-9.74-37.88-25.39-69.66-46.94-95.34c-21.56-25.69-47.99-45.28-79.28-58.78c-31.29-13.5-65.37-20.25-102.23-20.25h-668.65
							l-3.13,18.29c35.46,3.49,61.72,21.13,78.75,52.92c17.04,31.8,22.43,69.9,16.17,114.31l-36.28,257.15h32.17l-27.68,204.19
							h-33.3l-29.84,211.49h216.97l29.87-211.37h6.31c19.75,0.01,39.5,0.03,59.25,0.04l26.4-189.99l1.19-6.53l272.33,407.86h318.16
							L1892.68,2156.1z M1884.33,1932.83c-4.87,35.68-18.43,63.09-40.68,82.23c-22.25,19.14-46.59,28.72-73.01,28.72h-216.69
							l0.15-0.83c-21.91,0.02-43.83,0.05-65.74,0.07l30.88-218.52h282.69c26.43,0,47.99,9.36,64.67,28.06
							C1883.29,1871.27,1889.2,1898.02,1884.33,1932.83z"/>
					</g>
				</g>
			</g>
		</g>
	</g>
</g>
</svg>